<svg xmlns="http://www.w3.org/2000/svg" width="1920" height="1274" fill="none" viewBox="0 0 1920 1274">
  <path fill="#16289E" fill-rule="evenodd" d="M1923 0v170.771c-28.96-18.975-144 53.23-158.5 153.229-14.5 100 109 318.218 77.5 492.359-31.5 174.141-220.06 15.864-277.99-97.983-57.92-113.847-115.85-341.541-173.78-474.362-57.92-132.821-463.408-92.218-521.334-73.243-57.926 18.974-115.853 94.872-173.779 170.77C637.191 417.439 389.426 1081.13 331.5 1176 204.514 1402.17-12 1215.5 111.327 816.359c62.891-203.542 183.437-433.425 72.408-578.9C125.809 161.561 38.919 216.362 0 140.975V0h1923Z" clip-rule="evenodd"/>
</svg>
