<svg width="68" height="71" viewBox="0 0 68 71" fill="none" xmlns="http://www.w3.org/2000/svg">
<path opacity="0.3" d="M53.8333 23.6666C53.8333 22.0396 52.5583 20.7083 50.9999 20.7083H39.6666C38.1083 20.7083 36.8333 22.0396 36.8333 23.6666V29.5833H53.8333V23.6666ZM31.1666 23.6666C31.1666 22.0396 29.8916 20.7083 28.3333 20.7083H16.9999C15.4416 20.7083 14.1666 22.0396 14.1666 23.6666V29.5833H31.1666V23.6666ZM53.8333 35.5H14.1666C12.6083 35.5 11.3333 36.8312 11.3333 38.4583V44.375H56.6666V38.4583C56.6666 36.8312 55.3916 35.5 53.8333 35.5Z" fill="black"/>
<path d="M59.5001 31.8909V23.6667C59.5001 18.7854 55.6751 14.7917 51.0001 14.7917H39.6667C37.4851 14.7917 35.5017 15.6792 34.0001 17.0992C32.4984 15.6792 30.5151 14.7917 28.3334 14.7917H17.0001C12.3251 14.7917 8.50008 18.7854 8.50008 23.6667V31.8909C6.77175 33.5179 5.66675 35.855 5.66675 38.4584V56.2084H11.3334V50.2917H56.6668V56.2084H62.3334V38.4584C62.3334 35.855 61.2284 33.5179 59.5001 31.8909ZM36.8334 23.6667C36.8334 22.0396 38.1084 20.7084 39.6667 20.7084H51.0001C52.5584 20.7084 53.8334 22.0396 53.8334 23.6667V29.5834H36.8334V23.6667ZM14.1667 23.6667C14.1667 22.0396 15.4417 20.7084 17.0001 20.7084H28.3334C29.8918 20.7084 31.1667 22.0396 31.1667 23.6667V29.5834H14.1667V23.6667ZM56.6668 44.375H11.3334V38.4584C11.3334 36.8313 12.6084 35.5 14.1667 35.5H53.8334C55.3918 35.5 56.6668 36.8313 56.6668 38.4584V44.375Z" fill="black"/>
</svg>
