<svg xmlns="http://www.w3.org/2000/svg" width="95" height="85" fill="none" viewBox="0 0 95 85">
  <path stroke="#33363F" stroke-linecap="round" stroke-width="5" d="M47.25 74.75c-4.63 0-9.213-.825-13.49-2.426-4.276-1.602-8.162-3.95-11.435-6.91-3.274-2.96-5.87-6.474-7.642-10.341A29.248 29.248 0 0 1 12 42.875c0-4.186.912-8.33 2.683-12.198 1.772-3.867 4.368-7.381 7.642-10.341 3.273-2.96 7.159-5.308 11.435-6.91A38.515 38.515 0 0 1 47.25 11c4.63 0 9.213.825 13.49 2.426 4.276 1.602 8.162 3.95 11.435 6.91 3.274 2.96 5.87 6.474 7.642 10.341A29.248 29.248 0 0 1 82.5 42.875c0 4.186-.912 8.33-2.683 12.198-1.772 3.867-4.368 7.381-7.641 10.341-3.274 2.96-7.16 5.308-11.436 6.91a38.515 38.515 0 0 1-13.49 2.426h0ZM35.625 31.875l23.75 21.25m0-21.25-23.75 21.25"/>
</svg>
