<svg xmlns="http://www.w3.org/2000/svg" width="50" height="50" fill="none" viewBox="0 0 50 50">
  <g opacity=".5">
    <path stroke="#000" stroke-width="5" d="M6.25 22.25c0-5.6 0-8.4 1.09-10.54a10 10 0 0 1 4.37-4.37c2.14-1.09 4.94-1.09 10.54-1.09h5.5c5.6 0 8.4 0 10.54 1.09a10 10 0 0 1 4.37 4.37c1.09 2.14 1.09 4.94 1.09 10.54v5.5c0 5.6 0 8.4-1.09 10.54a10.001 10.001 0 0 1-4.37 4.37c-2.14 1.09-4.94 1.09-10.54 1.09h-5.5c-5.6 0-8.4 0-10.54-1.09a10 10 0 0 1-4.37-4.37c-1.09-2.14-1.09-4.94-1.09-10.54v-5.5Z"/>
    <circle cx="16.667" cy="25" r="3.75" stroke="#222" stroke-width="5"/>
    <path stroke="#222" stroke-linecap="round" stroke-width="5" d="M20.833 25h8.334m6.25 4.167V25.15a.15.15 0 0 0-.15-.15h-6.1m0 0v4.167"/>
  </g>
</svg>
