<svg xmlns="http://www.w3.org/2000/svg" width="130" height="130" fill="none" viewBox="0 0 130 130">
  <path fill="#0FA958" d="M54.618 90.492 29.545 65.414l8.356-8.356L54.618 73.77 88.04 40.341l8.361 8.362-41.783 41.789Z"/>
  <path fill="#0FA958" fill-rule="evenodd" d="M0 65C0 29.102 29.102 0 65 0c35.898 0 65 29.102 65 65 0 35.898-29.102 65-65 65-35.898 0-65-29.102-65-65Zm65 53.182a53.194 53.194 0 0 1-37.605-15.577 53.178 53.178 0 0 1 0-75.21A53.181 53.181 0 1 1 65 118.182Z" clip-rule="evenodd"/>
</svg>
